<?xml version="1.0" encoding="UTF-8" standalone="no"?>
<!DOCTYPE svg PUBLIC "-//W3C//DTD SVG 1.1//EN"
 "http://www.w3.org/Graphics/SVG/1.1/DTD/svg11.dtd">
<!-- Generated by graphviz version 2.43.0 (0)
 -->
<!-- Title: G Pages: 1 -->
<svg width="324pt" height="852pt"
 viewBox="0.00 0.00 323.54 851.86" xmlns="http://www.w3.org/2000/svg" xmlns:xlink="http://www.w3.org/1999/xlink">
<g id="graph0" class="graph" transform="scale(1 1) rotate(0) translate(4 847.86)">
<title>G</title>
<polygon fill="white" stroke="transparent" points="-4,4 -4,-847.86 319.54,-847.86 319.54,4 -4,4"/>
<text text-anchor="middle" x="157.77" y="-22.8" font-family="Times,serif" font-size="14.00">Rank: 7</text>
<text text-anchor="middle" x="157.77" y="-7.8" font-family="Times,serif" font-size="14.00">Commutator Rank: 0</text>
<!-- 0 -->
<g id="node1" class="node">
<title>0</title>
<g id="a_node1"><a xlink:title="2 3 4 5 4 3 2 1">
<ellipse fill="blue" stroke="black" cx="147.85" cy="-73.85" rx="31.71" ry="31.71"/>
<ellipse fill="none" stroke="black" cx="147.85" cy="-73.85" rx="35.69" ry="35.69"/>
<text text-anchor="middle" x="147.85" y="-70.15" font-family="Times,serif" font-size="14.00" fill="red">su_1</text>
</a>
</g>
</g>
<!-- 1 -->
<g id="node2" class="node">
<title>1</title>
<g id="a_node2"><a xlink:title="0 0 0 1 0 0 0 0">
<ellipse fill="blue" stroke="black" cx="73.85" cy="-239.39" rx="31.71" ry="31.71"/>
<ellipse fill="none" stroke="black" cx="73.85" cy="-239.39" rx="35.69" ry="35.69"/>
<text text-anchor="middle" x="73.85" y="-235.69" font-family="Times,serif" font-size="14.00" fill="red">su_2</text>
</a>
</g>
</g>
<!-- 1&#45;&gt;0 -->
<g id="edge8" class="edge">
<title>1&#45;&gt;0</title>
<path fill="none" stroke="black" d="M88.29,-206.47C101.33,-177.65 120.41,-135.48 133.44,-106.69"/>
</g>
<!-- 2 -->
<g id="node3" class="node">
<title>2</title>
<g id="a_node3"><a xlink:title="0 0 0 0 1 0 0 0">
<ellipse fill="blue" stroke="black" cx="73.85" cy="-404.93" rx="31.71" ry="31.71"/>
<ellipse fill="none" stroke="black" cx="73.85" cy="-404.93" rx="35.69" ry="35.69"/>
<text text-anchor="middle" x="73.85" y="-401.23" font-family="Times,serif" font-size="14.00" fill="red">su_3</text>
</a>
</g>
</g>
<!-- 2&#45;&gt;1 -->
<g id="edge7" class="edge">
<title>2&#45;&gt;1</title>
<path fill="none" stroke="black" d="M73.85,-368.84C73.85,-341.25 73.85,-302.99 73.85,-275.41"/>
</g>
<!-- 3 -->
<g id="node4" class="node">
<title>3</title>
<g id="a_node4"><a xlink:title="0 0 0 0 0 1 0 0">
<ellipse fill="blue" stroke="black" cx="73.85" cy="-512.62" rx="31.71" ry="31.71"/>
<ellipse fill="none" stroke="black" cx="73.85" cy="-512.62" rx="35.69" ry="35.69"/>
<text text-anchor="middle" x="73.85" y="-508.92" font-family="Times,serif" font-size="14.00" fill="red">su_4</text>
</a>
</g>
</g>
<!-- 3&#45;&gt;2 -->
<g id="edge6" class="edge">
<title>3&#45;&gt;2</title>
<path fill="none" stroke="black" d="M73.85,-476.72C73.85,-465.17 73.85,-452.33 73.85,-440.79"/>
</g>
<!-- 4 -->
<g id="node5" class="node">
<title>4</title>
<g id="a_node5"><a xlink:title="0 0 0 0 0 0 1 0">
<ellipse fill="blue" stroke="black" cx="73.85" cy="-620.31" rx="31.71" ry="31.71"/>
<ellipse fill="none" stroke="black" cx="73.85" cy="-620.31" rx="35.69" ry="35.69"/>
<text text-anchor="middle" x="73.85" y="-616.61" font-family="Times,serif" font-size="14.00" fill="red">su_5</text>
</a>
</g>
</g>
<!-- 4&#45;&gt;3 -->
<g id="edge5" class="edge">
<title>4&#45;&gt;3</title>
<path fill="none" stroke="black" d="M73.85,-584.41C73.85,-572.87 73.85,-560.03 73.85,-548.48"/>
</g>
<!-- 5 -->
<g id="node6" class="node">
<title>5</title>
<g id="a_node6"><a xlink:title="0 0 0 0 0 0 0 1">
<ellipse fill="blue" stroke="black" cx="35.85" cy="-728.01" rx="31.71" ry="31.71"/>
<ellipse fill="none" stroke="black" cx="35.85" cy="-728.01" rx="35.69" ry="35.69"/>
<text text-anchor="middle" x="35.85" y="-724.31" font-family="Times,serif" font-size="14.00" fill="red">su_6</text>
</a>
</g>
</g>
<!-- 5&#45;&gt;4 -->
<g id="edge4" class="edge">
<title>5&#45;&gt;4</title>
<path fill="none" stroke="black" d="M47.66,-694.15C52.19,-681.54 57.37,-667.16 61.91,-654.52"/>
</g>
<!-- 6 -->
<g id="node7" class="node">
<title>6</title>
<g id="a_node7"><a xlink:title="&#45;1 &#45;1 &#45;1 &#45;2 &#45;2 &#45;2 &#45;2 &#45;1">
<ellipse fill="purple" stroke="black" cx="111.85" cy="-728.01" rx="18" ry="18"/>
<ellipse fill="none" stroke="black" cx="111.85" cy="-728.01" rx="22" ry="22"/>
</a>
</g>
</g>
<!-- 6&#45;&gt;4 -->
<g id="edge2" class="edge">
<title>6&#45;&gt;4</title>
<path fill="none" stroke="black" d="M104.7,-707.13C99.37,-692.3 91.96,-671.7 85.74,-654.4"/>
</g>
<!-- 7 -->
<g id="node8" class="node">
<title>7</title>
<g id="a_node8"><a xlink:title="0 0 &#45;1 &#45;1 &#45;1 &#45;1 &#45;1 &#45;1">
<ellipse fill="blue" stroke="black" cx="35.85" cy="-821.86" rx="18" ry="18"/>
<ellipse fill="none" stroke="black" cx="35.85" cy="-821.86" rx="22" ry="22"/>
</a>
</g>
</g>
<!-- 7&#45;&gt;5 -->
<g id="edge3" class="edge">
<title>7&#45;&gt;5</title>
<path fill="none" stroke="black" d="M35.85,-799.55C35.85,-788.95 35.85,-775.87 35.85,-763.86"/>
</g>
<!-- 8 -->
<g id="node9" class="node">
<title>8</title>
<g id="a_node9"><a xlink:title="&#45;1 &#45;3 &#45;3 &#45;5 &#45;4 &#45;3 &#45;2 &#45;1">
<ellipse fill="purple" stroke="black" cx="221.85" cy="-239.39" rx="89.88" ry="89.88"/>
<ellipse fill="none" stroke="black" cx="221.85" cy="-239.39" rx="93.88" ry="93.88"/>
<text text-anchor="middle" x="221.85" y="-235.69" font-family="Times,serif" font-size="14.00" fill="red">su_0, lowest root</text>
</a>
</g>
</g>
<!-- 8&#45;&gt;0 -->
<g id="edge1" class="edge">
<title>8&#45;&gt;0</title>
<path fill="none" stroke="black" d="M183.55,-153.74C176,-137.06 168.52,-120.54 162.38,-106.97"/>
</g>
</g>
</svg>
