<?xml version="1.0" encoding="UTF-8" standalone="no"?>
<!DOCTYPE svg PUBLIC "-//W3C//DTD SVG 1.1//EN"
 "http://www.w3.org/Graphics/SVG/1.1/DTD/svg11.dtd">
<!-- Generated by graphviz version 2.43.0 (0)
 -->
<!-- Title: G Pages: 1 -->
<svg width="195pt" height="876pt"
 viewBox="0.00 0.00 195.38 876.16" xmlns="http://www.w3.org/2000/svg" xmlns:xlink="http://www.w3.org/1999/xlink">
<g id="graph0" class="graph" transform="scale(1 1) rotate(0) translate(4 872.16)">
<title>G</title>
<polygon fill="white" stroke="transparent" points="-4,4 -4,-872.16 191.38,-872.16 191.38,4 -4,4"/>
<text text-anchor="middle" x="93.69" y="-22.8" font-family="Times,serif" font-size="14.00">Rank: 3</text>
<text text-anchor="middle" x="93.69" y="-7.8" font-family="Times,serif" font-size="14.00">Commutator Rank: 2</text>
<!-- 0 -->
<g id="node1" class="node">
<title>0</title>
<g id="a_node1"><a xlink:title="0 0 0 0 0 1">
<ellipse fill="blue" stroke="black" cx="61.69" cy="-608.93" rx="31.71" ry="31.71"/>
<ellipse fill="none" stroke="black" cx="61.69" cy="-608.93" rx="35.69" ry="35.69"/>
<text text-anchor="middle" x="61.69" y="-605.23" font-family="Times,serif" font-size="14.00" fill="red">su_1</text>
</a>
</g>
</g>
<!-- 1 -->
<g id="node2" class="node">
<title>1</title>
<g id="a_node2"><a xlink:title="0 0 0 0 1 0">
<ellipse fill="blue" stroke="black" cx="59.69" cy="-501.23" rx="31.71" ry="31.71"/>
<ellipse fill="none" stroke="black" cx="59.69" cy="-501.23" rx="35.69" ry="35.69"/>
<text text-anchor="middle" x="59.69" y="-497.53" font-family="Times,serif" font-size="14.00" fill="red">su_2</text>
</a>
</g>
</g>
<!-- 0&#45;&gt;1 -->
<g id="edge3" class="edge">
<title>0&#45;&gt;1</title>
<path fill="none" stroke="black" d="M61.03,-573.02C60.81,-561.48 60.57,-548.64 60.35,-537.1"/>
</g>
<!-- 4 -->
<g id="node5" class="node">
<title>4</title>
<g id="a_node5"><a xlink:title="0 0 0 1 0 0">
<ellipse fill="purple" stroke="black" cx="53.69" cy="-407.38" rx="18" ry="18"/>
<ellipse fill="none" stroke="black" cx="53.69" cy="-407.38" rx="22" ry="22"/>
</a>
</g>
</g>
<!-- 1&#45;&gt;4 -->
<g id="edge4" class="edge">
<title>1&#45;&gt;4</title>
<path fill="none" stroke="black" d="M57.41,-465.25C56.62,-453.18 55.76,-440.05 55.07,-429.44"/>
</g>
<!-- 2 -->
<g id="node3" class="node">
<title>2</title>
<g id="a_node3"><a xlink:title="0 0 1 0 0 0">
<ellipse fill="blue" stroke="black" cx="50.69" cy="-300.54" rx="44.71" ry="44.71"/>
<ellipse fill="none" stroke="black" cx="50.69" cy="-300.54" rx="48.69" ry="48.69"/>
<text text-anchor="middle" x="50.69" y="-296.84" font-family="Times,serif" font-size="14.00" fill="red">Z(su)_0</text>
</a>
</g>
</g>
<!-- 3 -->
<g id="node4" class="node">
<title>3</title>
<g id="a_node4"><a xlink:title="0 1 0 0 0 0">
<ellipse fill="blue" stroke="black" cx="50.69" cy="-166.85" rx="44.71" ry="44.71"/>
<ellipse fill="none" stroke="black" cx="50.69" cy="-166.85" rx="48.69" ry="48.69"/>
<text text-anchor="middle" x="50.69" y="-163.15" font-family="Times,serif" font-size="14.00" fill="red">Z(su)_1</text>
</a>
</g>
</g>
<!-- 2&#45;&gt;3 -->
<g id="edge6" class="edge">
<title>2&#45;&gt;3</title>
<path fill="none" stroke="black" d="M50.69,-251.62C50.69,-240 50.69,-227.58 50.69,-215.95"/>
</g>
<!-- 5 -->
<g id="node6" class="node">
<title>5</title>
<g id="a_node6"><a xlink:title="1 0 0 0 0 0">
<ellipse fill="blue" stroke="black" cx="88.69" cy="-60" rx="18" ry="18"/>
<ellipse fill="none" stroke="black" cx="88.69" cy="-60" rx="22" ry="22"/>
</a>
</g>
</g>
<!-- 3&#45;&gt;5 -->
<g id="edge7" class="edge">
<title>3&#45;&gt;5</title>
<path fill="none" stroke="black" d="M67.03,-120.77C72.06,-106.9 77.34,-92.32 81.43,-81.04"/>
</g>
<!-- 4&#45;&gt;2 -->
<g id="edge5" class="edge">
<title>4&#45;&gt;2</title>
<path fill="none" stroke="black" d="M53.08,-385.17C52.79,-374.88 52.42,-362.06 52.07,-349.58"/>
</g>
<!-- 6 -->
<g id="node7" class="node">
<title>6</title>
<g id="a_node7"><a xlink:title="&#45;1 &#45;1 &#45;1 &#45;1 &#45;1 &#45;1">
<ellipse fill="purple" stroke="black" cx="93.69" cy="-774.46" rx="89.88" ry="89.88"/>
<ellipse fill="none" stroke="black" cx="93.69" cy="-774.46" rx="93.88" ry="93.88"/>
<text text-anchor="middle" x="93.69" y="-770.76" font-family="Times,serif" font-size="14.00" fill="red">su_0, lowest root</text>
</a>
</g>
</g>
<!-- 6&#45;&gt;0 -->
<g id="edge1" class="edge">
<title>6&#45;&gt;0</title>
<path fill="none" stroke="black" d="M75.82,-682.13C73.19,-668.67 70.62,-655.56 68.41,-644.28"/>
</g>
<!-- 6&#45;&gt;5 -->
<g id="edge2" class="edge">
<title>6&#45;&gt;5</title>
<path fill="none" stroke="black" d="M110.89,-682.17C119.32,-629.73 127.69,-562.5 127.69,-502.23 127.69,-502.23 127.69,-502.23 127.69,-299.54 127.69,-218.41 126.46,-197.15 108.69,-118 105.84,-105.31 101.06,-91.54 96.89,-80.72"/>
</g>
</g>
</svg>
