<?xml version="1.0" encoding="UTF-8" standalone="no"?>
<!DOCTYPE svg PUBLIC "-//W3C//DTD SVG 1.1//EN"
 "http://www.w3.org/Graphics/SVG/1.1/DTD/svg11.dtd">
<!-- Generated by graphviz version 2.43.0 (0)
 -->
<!-- Title: G Pages: 1 -->
<svg width="383pt" height="447pt"
 viewBox="0.00 0.00 382.89 447.47" xmlns="http://www.w3.org/2000/svg" xmlns:xlink="http://www.w3.org/1999/xlink">
<g id="graph0" class="graph" transform="scale(1 1) rotate(0) translate(4 443.47)">
<title>G</title>
<polygon fill="white" stroke="transparent" points="-4,4 -4,-443.47 378.89,-443.47 378.89,4 -4,4"/>
<text text-anchor="middle" x="187.45" y="-22.8" font-family="Times,serif" font-size="14.00">Rank: 2</text>
<text text-anchor="middle" x="187.45" y="-7.8" font-family="Times,serif" font-size="14.00">Commutator Rank: 4</text>
<!-- 0 -->
<g id="node1" class="node">
<title>0</title>
<g id="a_node1"><a xlink:title="0 1 0 0 0 0">
<ellipse fill="purple" stroke="black" cx="35.85" cy="-372.43" rx="31.71" ry="31.71"/>
<ellipse fill="none" stroke="black" cx="35.85" cy="-372.43" rx="35.69" ry="35.69"/>
<text text-anchor="middle" x="35.85" y="-368.73" font-family="Times,serif" font-size="14.00" fill="red">su_2</text>
</a>
</g>
</g>
<!-- 1 -->
<g id="node2" class="node">
<title>1</title>
<g id="a_node2"><a xlink:title="0 0 0 0 0 1">
<ellipse fill="blue" stroke="black" cx="138.85" cy="-372.43" rx="44.71" ry="44.71"/>
<ellipse fill="none" stroke="black" cx="138.85" cy="-372.43" rx="48.69" ry="48.69"/>
<text text-anchor="middle" x="138.85" y="-368.73" font-family="Times,serif" font-size="14.00" fill="red">Z(su)_0</text>
</a>
</g>
</g>
<!-- 2 -->
<g id="node3" class="node">
<title>2</title>
<g id="a_node3"><a xlink:title="0 0 0 0 1 0">
<ellipse fill="blue" stroke="black" cx="209.85" cy="-220.54" rx="44.71" ry="44.71"/>
<ellipse fill="none" stroke="black" cx="209.85" cy="-220.54" rx="48.69" ry="48.69"/>
<text text-anchor="middle" x="209.85" y="-216.84" font-family="Times,serif" font-size="14.00" fill="red">Z(su)_1</text>
</a>
</g>
</g>
<!-- 1&#45;&gt;2 -->
<g id="edge3" class="edge">
<title>1&#45;&gt;2</title>
<path fill="none" stroke="black" d="M159.38,-328.07C168.76,-308.27 179.85,-284.87 189.23,-265.05"/>
</g>
<!-- 5 -->
<g id="node6" class="node">
<title>5</title>
<g id="a_node6"><a xlink:title="0 1 1 2 1 0">
<ellipse fill="purple" stroke="black" cx="120.85" cy="-220.54" rx="18" ry="18"/>
<ellipse fill="none" stroke="black" cx="120.85" cy="-220.54" rx="22" ry="22"/>
</a>
</g>
</g>
<!-- 1&#45;&gt;5 -->
<g id="edge4" class="edge">
<title>1&#45;&gt;5</title>
<path fill="none" stroke="black" d="M133.1,-323.59C129.83,-296.34 125.9,-263.58 123.38,-242.65"/>
</g>
<!-- 3 -->
<g id="node4" class="node">
<title>3</title>
<g id="a_node4"><a xlink:title="0 0 1 0 0 0">
<ellipse fill="blue" stroke="black" cx="325.85" cy="-220.54" rx="44.71" ry="44.71"/>
<ellipse fill="none" stroke="black" cx="325.85" cy="-220.54" rx="48.69" ry="48.69"/>
<text text-anchor="middle" x="325.85" y="-216.84" font-family="Times,serif" font-size="14.00" fill="red">Z(su)_2</text>
</a>
</g>
</g>
<!-- 4 -->
<g id="node5" class="node">
<title>4</title>
<g id="a_node5"><a xlink:title="1 0 0 0 0 0">
<ellipse fill="blue" stroke="black" cx="222.85" cy="-86.85" rx="44.71" ry="44.71"/>
<ellipse fill="none" stroke="black" cx="222.85" cy="-86.85" rx="48.69" ry="48.69"/>
<text text-anchor="middle" x="222.85" y="-83.15" font-family="Times,serif" font-size="14.00" fill="red">Z(su)_3</text>
</a>
</g>
</g>
<!-- 3&#45;&gt;4 -->
<g id="edge5" class="edge">
<title>3&#45;&gt;4</title>
<path fill="none" stroke="black" d="M296.06,-181.45C282.39,-163.98 266.23,-143.31 252.57,-125.85"/>
</g>
<!-- 5&#45;&gt;4 -->
<g id="edge6" class="edge">
<title>5&#45;&gt;4</title>
<path fill="none" stroke="black" d="M131.8,-201.45C137.51,-192.34 144.77,-181.23 151.85,-171.69 163.9,-155.46 178.15,-138.29 190.7,-123.75"/>
</g>
<!-- 6 -->
<g id="node7" class="node">
<title>6</title>
<g id="a_node7"><a xlink:title="&#45;1 &#45;1 &#45;2 &#45;2 &#45;2 &#45;1">
<ellipse fill="purple" stroke="black" cx="307.85" cy="-372.43" rx="63.09" ry="63.09"/>
<ellipse fill="none" stroke="black" cx="307.85" cy="-372.43" rx="67.09" ry="67.09"/>
<text text-anchor="middle" x="307.85" y="-368.73" font-family="Times,serif" font-size="14.00" fill="red">lowest root</text>
</a>
</g>
</g>
<!-- 6&#45;&gt;2 -->
<g id="edge1" class="edge">
<title>6&#45;&gt;2</title>
<path fill="none" stroke="black" d="M271.36,-315.61C259.71,-297.8 247.05,-278.45 236.27,-261.95"/>
</g>
<!-- 6&#45;&gt;3 -->
<g id="edge2" class="edge">
<title>6&#45;&gt;3</title>
<path fill="none" stroke="black" d="M315.74,-305.68C317.22,-293.41 318.73,-280.81 320.12,-269.21"/>
</g>
</g>
</svg>
