<?xml version="1.0" encoding="UTF-8" standalone="no"?>
<!DOCTYPE svg PUBLIC "-//W3C//DTD SVG 1.1//EN"
 "http://www.w3.org/Graphics/SVG/1.1/DTD/svg11.dtd">
<!-- Generated by graphviz version 2.43.0 (0)
 -->
<!-- Title: G Pages: 1 -->
<svg width="286pt" height="394pt"
 viewBox="0.00 0.00 285.89 393.78" xmlns="http://www.w3.org/2000/svg" xmlns:xlink="http://www.w3.org/1999/xlink">
<g id="graph0" class="graph" transform="scale(1 1) rotate(0) translate(4 389.78)">
<title>G</title>
<polygon fill="white" stroke="transparent" points="-4,4 -4,-389.78 281.89,-389.78 281.89,4 -4,4"/>
<text text-anchor="middle" x="138.95" y="-22.8" font-family="Times,serif" font-size="14.00">Rank: 4</text>
<text text-anchor="middle" x="138.95" y="-7.8" font-family="Times,serif" font-size="14.00">Commutator Rank: 1</text>
<!-- 0 -->
<g id="node1" class="node">
<title>0</title>
<g id="a_node1"><a xlink:title="0 &#45;1 &#45;1 &#45;2 &#45;2 &#45;1">
<ellipse fill="purple" stroke="black" cx="35.85" cy="-256.93" rx="31.71" ry="31.71"/>
<ellipse fill="none" stroke="black" cx="35.85" cy="-256.93" rx="35.69" ry="35.69"/>
<text text-anchor="middle" x="35.85" y="-253.23" font-family="Times,serif" font-size="14.00" fill="red">su_4</text>
</a>
</g>
</g>
<!-- 1 -->
<g id="node2" class="node">
<title>1</title>
<g id="a_node2"><a xlink:title="0 0 0 0 1 0">
<ellipse fill="blue" stroke="black" cx="71.85" cy="-105.04" rx="31.71" ry="31.71"/>
<ellipse fill="none" stroke="black" cx="71.85" cy="-105.04" rx="35.69" ry="35.69"/>
<text text-anchor="middle" x="71.85" y="-101.34" font-family="Times,serif" font-size="14.00" fill="red">su_2</text>
</a>
</g>
</g>
<!-- 0&#45;&gt;1 -->
<g id="edge3" class="edge">
<title>0&#45;&gt;1</title>
<path fill="none" stroke="black" d="M44.02,-221.92C49.89,-197.48 57.77,-164.65 63.65,-140.18"/>
</g>
<!-- 2 -->
<g id="node3" class="node">
<title>2</title>
<g id="a_node3"><a xlink:title="0 0 0 0 0 1">
<ellipse fill="blue" stroke="black" cx="125.85" cy="-256.93" rx="31.71" ry="31.71"/>
<ellipse fill="none" stroke="black" cx="125.85" cy="-256.93" rx="35.69" ry="35.69"/>
<text text-anchor="middle" x="125.85" y="-253.23" font-family="Times,serif" font-size="14.00" fill="red">su_3</text>
</a>
</g>
</g>
<!-- 2&#45;&gt;1 -->
<g id="edge4" class="edge">
<title>2&#45;&gt;1</title>
<path fill="none" stroke="black" d="M114,-223.04C105.02,-198.14 92.75,-164.07 83.76,-139.12"/>
</g>
<!-- 6 -->
<g id="node7" class="node">
<title>6</title>
<g id="a_node7"><a xlink:title="1 1 1 2 1 0">
<ellipse fill="purple" stroke="black" cx="210.85" cy="-105.04" rx="63.09" ry="63.09"/>
<ellipse fill="none" stroke="black" cx="210.85" cy="-105.04" rx="67.09" ry="67.09"/>
<text text-anchor="middle" x="210.85" y="-101.34" font-family="Times,serif" font-size="14.00" fill="red">lowest root</text>
</a>
</g>
</g>
<!-- 2&#45;&gt;6 -->
<g id="edge5" class="edge">
<title>2&#45;&gt;6</title>
<path fill="none" stroke="black" d="M143.25,-225.24C153.31,-207.51 166.28,-184.63 178.17,-163.67"/>
</g>
<!-- 3 -->
<g id="node4" class="node">
<title>3</title>
<g id="a_node4"><a xlink:title="0 0 1 0 0 0">
<ellipse fill="blue" stroke="black" cx="228.85" cy="-256.93" rx="44.71" ry="44.71"/>
<ellipse fill="none" stroke="black" cx="228.85" cy="-256.93" rx="48.69" ry="48.69"/>
<text text-anchor="middle" x="228.85" y="-253.23" font-family="Times,serif" font-size="14.00" fill="red">Z(su)_0</text>
</a>
</g>
</g>
<!-- 3&#45;&gt;6 -->
<g id="edge6" class="edge">
<title>3&#45;&gt;6</title>
<path fill="none" stroke="black" d="M223.1,-208.1C221.71,-196.53 220.2,-183.97 218.74,-171.74"/>
</g>
<!-- 4 -->
<g id="node5" class="node">
<title>4</title>
<g id="a_node5"><a xlink:title="&#45;1 0 &#45;1 0 0 0">
<ellipse fill="blue" stroke="black" cx="131.85" cy="-363.78" rx="18" ry="18"/>
<ellipse fill="none" stroke="black" cx="131.85" cy="-363.78" rx="22" ry="22"/>
</a>
</g>
</g>
<!-- 4&#45;&gt;0 -->
<g id="edge1" class="edge">
<title>4&#45;&gt;0</title>
<path fill="none" stroke="black" d="M117.27,-346.86C102.06,-330.24 77.96,-303.92 59.92,-284.22"/>
</g>
<!-- 4&#45;&gt;3 -->
<g id="edge2" class="edge">
<title>4&#45;&gt;3</title>
<path fill="none" stroke="black" d="M146.58,-346.86C159.62,-332.76 179.12,-311.69 195.86,-293.59"/>
</g>
<!-- 5 -->
<g id="node6" class="node">
<title>5</title>
<g id="a_node6"><a xlink:title="0 &#45;1 0 0 0 0">
<ellipse fill="purple" stroke="black" cx="193.85" cy="-363.78" rx="18" ry="18"/>
<ellipse fill="none" stroke="black" cx="193.85" cy="-363.78" rx="22" ry="22"/>
</a>
</g>
</g>
</g>
</svg>
