<?xml version="1.0" encoding="UTF-8" standalone="no"?>
<!DOCTYPE svg PUBLIC "-//W3C//DTD SVG 1.1//EN"
 "http://www.w3.org/Graphics/SVG/1.1/DTD/svg11.dtd">
<!-- Generated by graphviz version 2.43.0 (0)
 -->
<!-- Title: G Pages: 1 -->
<svg width="490pt" height="768pt"
 viewBox="0.00 0.00 489.54 768.15" xmlns="http://www.w3.org/2000/svg" xmlns:xlink="http://www.w3.org/1999/xlink">
<g id="graph0" class="graph" transform="scale(1 1) rotate(0) translate(4 764.15)">
<title>G</title>
<polygon fill="white" stroke="transparent" points="-4,4 -4,-764.15 485.54,-764.15 485.54,4 -4,4"/>
<text text-anchor="middle" x="240.77" y="-22.8" font-family="Times,serif" font-size="14.00">Rank: 2</text>
<text text-anchor="middle" x="240.77" y="-7.8" font-family="Times,serif" font-size="14.00">Commutator Rank: 6</text>
<!-- 0 -->
<g id="node1" class="node">
<title>0</title>
<g id="a_node1"><a xlink:title="2 3 4 6 5 4 3 2">
<ellipse fill="blue" stroke="black" cx="291.85" cy="-86.85" rx="31.71" ry="31.71"/>
<ellipse fill="none" stroke="black" cx="291.85" cy="-86.85" rx="35.69" ry="35.69"/>
<text text-anchor="middle" x="291.85" y="-83.15" font-family="Times,serif" font-size="14.00" fill="red">su_1</text>
</a>
</g>
</g>
<!-- 1 -->
<g id="node2" class="node">
<title>1</title>
<g id="a_node2"><a xlink:title="0 0 0 0 0 1 0 0">
<ellipse fill="blue" stroke="black" cx="137.85" cy="-711.31" rx="44.71" ry="44.71"/>
<ellipse fill="none" stroke="black" cx="137.85" cy="-711.31" rx="48.69" ry="48.69"/>
<text text-anchor="middle" x="137.85" y="-707.61" font-family="Times,serif" font-size="14.00" fill="red">Z(su)_0</text>
</a>
</g>
</g>
<!-- 2 -->
<g id="node3" class="node">
<title>2</title>
<g id="a_node3"><a xlink:title="0 0 0 0 1 0 0 0">
<ellipse fill="blue" stroke="black" cx="137.85" cy="-577.61" rx="44.71" ry="44.71"/>
<ellipse fill="none" stroke="black" cx="137.85" cy="-577.61" rx="48.69" ry="48.69"/>
<text text-anchor="middle" x="137.85" y="-573.91" font-family="Times,serif" font-size="14.00" fill="red">Z(su)_1</text>
</a>
</g>
</g>
<!-- 1&#45;&gt;2 -->
<g id="edge4" class="edge">
<title>1&#45;&gt;2</title>
<path fill="none" stroke="black" d="M137.85,-662.39C137.85,-650.77 137.85,-638.34 137.85,-626.72"/>
</g>
<!-- 3 -->
<g id="node4" class="node">
<title>3</title>
<g id="a_node4"><a xlink:title="0 0 0 1 0 0 0 0">
<ellipse fill="blue" stroke="black" cx="137.85" cy="-443.92" rx="44.71" ry="44.71"/>
<ellipse fill="none" stroke="black" cx="137.85" cy="-443.92" rx="48.69" ry="48.69"/>
<text text-anchor="middle" x="137.85" y="-440.22" font-family="Times,serif" font-size="14.00" fill="red">Z(su)_2</text>
</a>
</g>
</g>
<!-- 2&#45;&gt;3 -->
<g id="edge5" class="edge">
<title>2&#45;&gt;3</title>
<path fill="none" stroke="black" d="M137.85,-528.7C137.85,-517.08 137.85,-504.65 137.85,-493.02"/>
</g>
<!-- 4 -->
<g id="node5" class="node">
<title>4</title>
<g id="a_node5"><a xlink:title="0 0 1 0 0 0 0 0">
<ellipse fill="blue" stroke="black" cx="48.85" cy="-265.38" rx="44.71" ry="44.71"/>
<ellipse fill="none" stroke="black" cx="48.85" cy="-265.38" rx="48.69" ry="48.69"/>
<text text-anchor="middle" x="48.85" y="-261.68" font-family="Times,serif" font-size="14.00" fill="red">Z(su)_3</text>
</a>
</g>
</g>
<!-- 3&#45;&gt;4 -->
<g id="edge6" class="edge">
<title>3&#45;&gt;4</title>
<path fill="none" stroke="black" d="M116.07,-399.74C102.23,-372.28 84.38,-336.86 70.55,-309.43"/>
</g>
<!-- 5 -->
<g id="node6" class="node">
<title>5</title>
<g id="a_node6"><a xlink:title="0 1 0 0 0 0 0 0">
<ellipse fill="blue" stroke="black" cx="226.85" cy="-265.38" rx="44.71" ry="44.71"/>
<ellipse fill="none" stroke="black" cx="226.85" cy="-265.38" rx="48.69" ry="48.69"/>
<text text-anchor="middle" x="226.85" y="-261.68" font-family="Times,serif" font-size="14.00" fill="red">Z(su)_4</text>
</a>
</g>
</g>
<!-- 3&#45;&gt;5 -->
<g id="edge7" class="edge">
<title>3&#45;&gt;5</title>
<path fill="none" stroke="black" d="M159.62,-399.74C173.46,-372.28 191.32,-336.86 205.14,-309.43"/>
</g>
<!-- 6 -->
<g id="node7" class="node">
<title>6</title>
<g id="a_node7"><a xlink:title="1 0 0 0 0 0 0 0">
<ellipse fill="blue" stroke="black" cx="92.85" cy="-86.85" rx="44.71" ry="44.71"/>
<ellipse fill="none" stroke="black" cx="92.85" cy="-86.85" rx="48.69" ry="48.69"/>
<text text-anchor="middle" x="92.85" y="-83.15" font-family="Times,serif" font-size="14.00" fill="red">Z(su)_5</text>
</a>
</g>
</g>
<!-- 4&#45;&gt;6 -->
<g id="edge8" class="edge">
<title>4&#45;&gt;6</title>
<path fill="none" stroke="black" d="M60.52,-217.54C66.91,-191.9 74.81,-160.23 81.19,-134.6"/>
</g>
<!-- 7 -->
<g id="node8" class="node">
<title>7</title>
<g id="a_node8"><a xlink:title="&#45;2 &#45;2 &#45;3 &#45;4 &#45;3 &#45;2 &#45;1 &#45;1">
<ellipse fill="purple" stroke="black" cx="137.85" cy="-265.38" rx="18" ry="18"/>
<ellipse fill="none" stroke="black" cx="137.85" cy="-265.38" rx="22" ry="22"/>
</a>
</g>
</g>
<!-- 7&#45;&gt;0 -->
<g id="edge3" class="edge">
<title>7&#45;&gt;0</title>
<path fill="none" stroke="black" d="M140.89,-243.43C144.65,-223.37 152.67,-193.07 168.85,-171.69 192.62,-140.26 231.72,-116.52 259.45,-102.47"/>
</g>
<!-- 7&#45;&gt;6 -->
<g id="edge2" class="edge">
<title>7&#45;&gt;6</title>
<path fill="none" stroke="black" d="M132.6,-243.79C125.8,-217.14 113.77,-169.92 104.71,-134.4"/>
</g>
<!-- 8 -->
<g id="node9" class="node">
<title>8</title>
<g id="a_node9"><a xlink:title="&#45;2 &#45;3 &#45;4 &#45;6 &#45;5 &#45;4 &#45;3 &#45;1">
<ellipse fill="purple" stroke="black" cx="387.85" cy="-265.38" rx="89.88" ry="89.88"/>
<ellipse fill="none" stroke="black" cx="387.85" cy="-265.38" rx="93.88" ry="93.88"/>
<text text-anchor="middle" x="387.85" y="-261.68" font-family="Times,serif" font-size="14.00" fill="red">su_0, lowest root</text>
</a>
</g>
</g>
<!-- 8&#45;&gt;0 -->
<g id="edge1" class="edge">
<title>8&#45;&gt;0</title>
<path fill="none" stroke="black" d="M343.5,-182.83C331.12,-160.07 318.41,-136.7 308.7,-118.84"/>
</g>
</g>
</svg>
