<?xml version="1.0" encoding="UTF-8" standalone="no"?>
<!DOCTYPE svg PUBLIC "-//W3C//DTD SVG 1.1//EN"
 "http://www.w3.org/Graphics/SVG/1.1/DTD/svg11.dtd">
<!-- Generated by graphviz version 2.43.0 (0)
 -->
<!-- Title: G Pages: 1 -->
<svg width="402pt" height="501pt"
 viewBox="0.00 0.00 401.54 500.77" xmlns="http://www.w3.org/2000/svg" xmlns:xlink="http://www.w3.org/1999/xlink">
<g id="graph0" class="graph" transform="scale(1 1) rotate(0) translate(4 496.77)">
<title>G</title>
<polygon fill="white" stroke="transparent" points="-4,4 -4,-496.77 397.54,-496.77 397.54,4 -4,4"/>
<text text-anchor="middle" x="196.77" y="-22.8" font-family="Times,serif" font-size="14.00">Rank: 5</text>
<text text-anchor="middle" x="196.77" y="-7.8" font-family="Times,serif" font-size="14.00">Commutator Rank: 2</text>
<!-- 0 -->
<g id="node1" class="node">
<title>0</title>
<g id="a_node1"><a xlink:title="1 2 2 3 3 2 1">
<ellipse fill="blue" stroke="black" cx="122.69" cy="-220.54" rx="31.71" ry="31.71"/>
<ellipse fill="none" stroke="black" cx="122.69" cy="-220.54" rx="35.69" ry="35.69"/>
<text text-anchor="middle" x="122.69" y="-216.84" font-family="Times,serif" font-size="14.00" fill="red">su_1</text>
</a>
</g>
</g>
<!-- 1 -->
<g id="node2" class="node">
<title>1</title>
<g id="a_node2"><a xlink:title="0 0 0 1 0 0 0">
<ellipse fill="blue" stroke="black" cx="241.69" cy="-399.08" rx="31.71" ry="31.71"/>
<ellipse fill="none" stroke="black" cx="241.69" cy="-399.08" rx="35.69" ry="35.69"/>
<text text-anchor="middle" x="241.69" y="-395.38" font-family="Times,serif" font-size="14.00" fill="red">su_2</text>
</a>
</g>
</g>
<!-- 1&#45;&gt;0 -->
<g id="edge6" class="edge">
<title>1&#45;&gt;0</title>
<path fill="none" stroke="black" d="M228.52,-365.59C220.46,-347.25 209.29,-324.29 196.69,-305.38 182.49,-284.05 163.26,-262.43 147.96,-246.48"/>
</g>
<!-- 2 -->
<g id="node3" class="node">
<title>2</title>
<g id="a_node3"><a xlink:title="0 0 1 0 0 0 0">
<ellipse fill="blue" stroke="black" cx="241.69" cy="-220.54" rx="31.71" ry="31.71"/>
<ellipse fill="none" stroke="black" cx="241.69" cy="-220.54" rx="35.69" ry="35.69"/>
<text text-anchor="middle" x="241.69" y="-216.84" font-family="Times,serif" font-size="14.00" fill="red">su_3</text>
</a>
</g>
</g>
<!-- 1&#45;&gt;2 -->
<g id="edge5" class="edge">
<title>1&#45;&gt;2</title>
<path fill="none" stroke="black" d="M241.69,-363.2C241.69,-332.35 241.69,-287.56 241.69,-256.65"/>
</g>
<!-- 3 -->
<g id="node4" class="node">
<title>3</title>
<g id="a_node4"><a xlink:title="1 0 0 0 0 0 0">
<ellipse fill="blue" stroke="black" cx="241.69" cy="-86.85" rx="31.71" ry="31.71"/>
<ellipse fill="none" stroke="black" cx="241.69" cy="-86.85" rx="35.69" ry="35.69"/>
<text text-anchor="middle" x="241.69" y="-83.15" font-family="Times,serif" font-size="14.00" fill="red">su_4</text>
</a>
</g>
</g>
<!-- 2&#45;&gt;3 -->
<g id="edge7" class="edge">
<title>2&#45;&gt;3</title>
<path fill="none" stroke="black" d="M241.69,-184.59C241.69,-165.54 241.69,-142.03 241.69,-122.95"/>
</g>
<!-- 4 -->
<g id="node5" class="node">
<title>4</title>
<g id="a_node5"><a xlink:title="0 0 0 0 0 0 1">
<ellipse fill="blue" stroke="black" cx="344.69" cy="-220.54" rx="44.71" ry="44.71"/>
<ellipse fill="none" stroke="black" cx="344.69" cy="-220.54" rx="48.69" ry="48.69"/>
<text text-anchor="middle" x="344.69" y="-216.84" font-family="Times,serif" font-size="14.00" fill="red">Z(su)_0</text>
</a>
</g>
</g>
<!-- 5 -->
<g id="node6" class="node">
<title>5</title>
<g id="a_node6"><a xlink:title="0 0 0 0 0 1 0">
<ellipse fill="blue" stroke="black" cx="344.69" cy="-86.85" rx="44.71" ry="44.71"/>
<ellipse fill="none" stroke="black" cx="344.69" cy="-86.85" rx="48.69" ry="48.69"/>
<text text-anchor="middle" x="344.69" y="-83.15" font-family="Times,serif" font-size="14.00" fill="red">Z(su)_1</text>
</a>
</g>
</g>
<!-- 4&#45;&gt;5 -->
<g id="edge4" class="edge">
<title>4&#45;&gt;5</title>
<path fill="none" stroke="black" d="M344.69,-171.62C344.69,-160 344.69,-147.58 344.69,-135.95"/>
</g>
<!-- 6 -->
<g id="node7" class="node">
<title>6</title>
<g id="a_node7"><a xlink:title="&#45;1 &#45;1 &#45;2 &#45;2 &#45;1 &#45;1 &#45;1">
<ellipse fill="purple" stroke="black" cx="331.69" cy="-399.08" rx="18" ry="18"/>
<ellipse fill="none" stroke="black" cx="331.69" cy="-399.08" rx="22" ry="22"/>
</a>
</g>
</g>
<!-- 6&#45;&gt;2 -->
<g id="edge3" class="edge">
<title>6&#45;&gt;2</title>
<path fill="none" stroke="black" d="M322.61,-378.79C313.68,-359.96 299.55,-330.55 286.69,-305.38 277.67,-287.73 267.22,-268.2 258.66,-252.44"/>
</g>
<!-- 6&#45;&gt;4 -->
<g id="edge2" class="edge">
<title>6&#45;&gt;4</title>
<path fill="none" stroke="black" d="M333.26,-376.78C335.21,-350.37 338.58,-304.55 341.16,-269.52"/>
</g>
<!-- 7 -->
<g id="node8" class="node">
<title>7</title>
<g id="a_node8"><a xlink:title="&#45;1 &#45;1 &#45;2 &#45;3 &#45;3 &#45;2 &#45;1">
<ellipse fill="purple" stroke="black" cx="93.69" cy="-399.08" rx="89.88" ry="89.88"/>
<ellipse fill="none" stroke="black" cx="93.69" cy="-399.08" rx="93.88" ry="93.88"/>
<text text-anchor="middle" x="93.69" y="-395.38" font-family="Times,serif" font-size="14.00" fill="red">su_0, lowest root</text>
</a>
</g>
</g>
<!-- 7&#45;&gt;0 -->
<g id="edge1" class="edge">
<title>7&#45;&gt;0</title>
<path fill="none" stroke="black" d="M108.74,-306.45C111.7,-288.48 114.62,-270.7 117.02,-256.09"/>
</g>
</g>
</svg>
