<?xml version="1.0" encoding="UTF-8" standalone="no"?>
<!DOCTYPE svg PUBLIC "-//W3C//DTD SVG 1.1//EN"
 "http://www.w3.org/Graphics/SVG/1.1/DTD/svg11.dtd">
<!-- Generated by graphviz version 2.43.0 (0)
 -->
<!-- Title: G Pages: 1 -->
<svg width="232pt" height="477pt"
 viewBox="0.00 0.00 231.89 477.47" xmlns="http://www.w3.org/2000/svg" xmlns:xlink="http://www.w3.org/1999/xlink">
<g id="graph0" class="graph" transform="scale(1 1) rotate(0) translate(4 473.47)">
<title>G</title>
<polygon fill="white" stroke="transparent" points="-4,4 -4,-473.47 227.89,-473.47 227.89,4 -4,4"/>
<text text-anchor="middle" x="111.95" y="-22.8" font-family="Times,serif" font-size="14.00">Rank: 2</text>
<text text-anchor="middle" x="111.95" y="-7.8" font-family="Times,serif" font-size="14.00">Commutator Rank: 2</text>
<!-- 0 -->
<g id="node1" class="node">
<title>0</title>
<g id="a_node1"><a xlink:title="1 0 0 0">
<ellipse fill="purple" stroke="black" cx="35.85" cy="-402.43" rx="31.71" ry="31.71"/>
<ellipse fill="none" stroke="black" cx="35.85" cy="-402.43" rx="35.69" ry="35.69"/>
<text text-anchor="middle" x="35.85" y="-398.73" font-family="Times,serif" font-size="14.00" fill="red">su_2</text>
</a>
</g>
</g>
<!-- 1 -->
<g id="node2" class="node">
<title>1</title>
<g id="a_node2"><a xlink:title="0 0 0 1">
<ellipse fill="blue" stroke="black" cx="156.85" cy="-235.54" rx="44.71" ry="44.71"/>
<ellipse fill="none" stroke="black" cx="156.85" cy="-235.54" rx="48.69" ry="48.69"/>
<text text-anchor="middle" x="156.85" y="-231.84" font-family="Times,serif" font-size="14.00" fill="red">Z(su)_0</text>
</a>
</g>
</g>
<!-- 2 -->
<g id="node3" class="node">
<title>2</title>
<g id="a_node3"><a xlink:title="0 0 1 0">
<ellipse fill="blue" stroke="black" cx="79.85" cy="-86.85" rx="44.71" ry="44.71"/>
<ellipse fill="none" stroke="black" cx="79.85" cy="-86.85" rx="48.69" ry="48.69"/>
<text text-anchor="middle" x="79.85" y="-83.15" font-family="Times,serif" font-size="14.00" fill="red">Z(su)_1</text>
</a>
</g>
</g>
<!-- 1&#45;&gt;2 -->
<g id="edge2" class="edge">
<title>1&#45;&gt;2</title>
<path fill="none" stroke="black" d="M134.37,-191.71C124.25,-172.43 112.33,-149.73 102.22,-130.47"/>
</g>
<!-- 3 -->
<g id="node4" class="node">
<title>3</title>
<g id="a_node4"><a xlink:title="&#45;1 &#45;2 &#45;4 &#45;2">
<ellipse fill="purple" stroke="black" cx="67.85" cy="-235.54" rx="18" ry="18"/>
<ellipse fill="none" stroke="black" cx="67.85" cy="-235.54" rx="22" ry="22"/>
</a>
</g>
</g>
<!-- 3&#45;&gt;2 -->
<g id="edge1" class="edge">
<title>3&#45;&gt;2</title>
<path fill="none" stroke="black" d="M69.57,-213.52C71.01,-195.84 73.15,-169.71 75.1,-145.84"/>
<polygon fill="black" stroke="black" points="78.6,-146.03 75.93,-135.78 71.62,-145.46 78.6,-146.03"/>
<text text-anchor="middle" x="78.85" y="-157.49" font-family="Times,serif" font-size="14.00">2</text>
</g>
<!-- 4 -->
<g id="node5" class="node">
<title>4</title>
<g id="a_node5"><a xlink:title="1 2 2 0">
<ellipse fill="purple" stroke="black" cx="156.85" cy="-402.43" rx="63.09" ry="63.09"/>
<ellipse fill="none" stroke="black" cx="156.85" cy="-402.43" rx="67.09" ry="67.09"/>
<text text-anchor="middle" x="156.85" y="-398.73" font-family="Times,serif" font-size="14.00" fill="red">lowest root</text>
</a>
</g>
</g>
<!-- 4&#45;&gt;1 -->
<g id="edge3" class="edge">
<title>4&#45;&gt;1</title>
<path fill="none" stroke="black" d="M156.85,-335.31C156.85,-321.88 156.85,-307.84 156.85,-294.71"/>
<polygon fill="black" stroke="black" points="160.35,-294.4 156.85,-284.4 153.35,-294.4 160.35,-294.4"/>
<text text-anchor="middle" x="161.85" y="-306.18" font-family="Times,serif" font-size="14.00">2</text>
</g>
</g>
</svg>
